<svg width="800" height="800" viewBox="0 0 800 800" xmlns="http://www.w3.org/2000/svg">
  <defs>
    <clipPath id="ringClip">
      <circle cx="400" cy="400" r="220"/>
    </clipPath>
  </defs>

  <!-- background -->
  <rect width="800" height="800" fill="#0E0B10"/>

  <!-- outer ring (orbit / loop motif) -->
  <circle cx="400" cy="400" r="260" fill="none" stroke="#4B1528" stroke-width="2"/>

  <!-- binary trail orbiting the ring, evokes Lovelace's algorithm -->
  <g fill="#D4537E" opacity="0.55" font-family="monospace" font-size="14">
    <text x="400" y="124" text-anchor="middle">1</text>
    <text x="520" y="158" text-anchor="middle">0</text>
    <text x="610" y="248" text-anchor="middle">1</text>
    <text x="646" y="400" text-anchor="middle">0</text>
    <text x="610" y="552" text-anchor="middle">1</text>
    <text x="520" y="642" text-anchor="middle">1</text>
    <text x="400" y="676" text-anchor="middle">0</text>
    <text x="280" y="642" text-anchor="middle">1</text>
    <text x="190" y="552" text-anchor="middle">0</text>
    <text x="154" y="400" text-anchor="middle">1</text>
    <text x="190" y="248" text-anchor="middle">0</text>
    <text x="280" y="158" text-anchor="middle">1</text>
  </g>

  <!-- core circle -->
  <circle cx="400" cy="400" r="220" fill="#1A1318" stroke="#993556" stroke-width="2"/>

  <!-- monogram L/P built from a single continuous stroke, suggesting code/algorithm -->
  <g clip-path="url(#ringClip)">
    <path d="M 330 290 L 330 510 L 430 510"
          fill="none" stroke="#FBEAF0" stroke-width="22" stroke-linecap="round" stroke-linejoin="round"/>
    <path d="M 430 510 C 470 510 500 480 500 440 C 500 400 470 372 430 372 L 392 372"
          fill="none" stroke="#D4537E" stroke-width="22" stroke-linecap="round" stroke-linejoin="round"/>
  </g>

  <!-- small spark node marking the ada point, the instant of insight -->
  <circle cx="500" cy="440" r="10" fill="#ED93B1"/>
</svg>
